<svg xmlns="http://www.w3.org/2000/svg" width="75" height="75" viewBox="0 0 75 75">
  <path id="home" d="M64.907,28.789l-.005-.005-27-27a6.093,6.093,0,0,0-8.618,0L2.3,28.771l-.027.028A6.091,6.091,0,0,0,6.324,39.18c.063.006.125.009.188.009H7.588v19.87A7.14,7.14,0,0,0,14.72,66.19H25.284a1.939,1.939,0,0,0,1.939-1.939V48.673a3.258,3.258,0,0,1,3.254-3.254h6.231a3.257,3.257,0,0,1,3.254,3.254V64.251A1.939,1.939,0,0,0,41.9,66.19H52.464A7.14,7.14,0,0,0,59.6,59.059V39.189h1a6.095,6.095,0,0,0,4.313-10.4Zm-2.746,5.872a2.2,2.2,0,0,1-1.567.649H57.657a1.939,1.939,0,0,0-1.939,1.939V59.059a3.257,3.257,0,0,1-3.254,3.253H43.84V48.673a7.14,7.14,0,0,0-7.132-7.132H30.477a7.141,7.141,0,0,0-7.133,7.132V62.312H14.72a3.257,3.257,0,0,1-3.254-3.253V37.25a1.939,1.939,0,0,0-1.939-1.939H6.641l-.091,0a2.213,2.213,0,0,1-1.526-3.779h0l0,0,27-27a2.214,2.214,0,0,1,3.132,0L62.152,31.52l.013.012a2.22,2.22,0,0,1,0,3.129Zm0,0" transform="translate(0 0.501)" stroke="#fff" stroke-width="1"/>
</svg>
