<svg xmlns="http://www.w3.org/2000/svg" width="135.754" height="183.461" viewBox="0 0 135.754 183.461">
  <g id="medal-of-honor" transform="translate(-66.569)">
    <g id="Group_45" data-name="Group 45" transform="translate(96.392 4.172)">
      <path id="Path_320" data-name="Path 320" d="M149.8,11.642h38.055V81.061H149.8Z" transform="translate(-149.797 -11.642)" fill="#ff4949"/>
      <path id="Path_321" data-name="Path 321" d="M256,11.642h38.343V81.061H256Z" transform="translate(-217.945 -11.642)" fill="#e50148"/>
    </g>
    <path id="Path_322" data-name="Path 322" d="M217.85,11.642V81.061h13.67l3.722-41.232L231.52,11.642Z" transform="translate(-97.073 -7.47)" fill="#e50148"/>
    <path id="Path_323" data-name="Path 323" d="M256,11.642h13.958V81.061H256Z" transform="translate(-121.553 -7.47)" fill="#bf065b"/>
    <path id="Path_324" data-name="Path 324" d="M124.853,0a5.375,5.375,0,0,0,0,10.75H168.4l3.722-5.375L168.4,0Z" transform="translate(-33.95)" fill="#ffd74a"/>
    <path id="Path_325" data-name="Path 325" d="M304.919,5.375A5.375,5.375,0,0,0,299.544,0H256V10.75h43.544A5.375,5.375,0,0,0,304.919,5.375Z" transform="translate(-121.553)" fill="#fdbf00"/>
    <g id="Group_46" data-name="Group 46" transform="translate(66.569 47.706)">
      <path id="Path_326" data-name="Path 326" d="M134.445,133.138a5.231,5.231,0,0,0-3.7,1.532l-16.814,16.814H90.147a5.232,5.232,0,0,0-5.232,5.232V180.5L68.1,197.314a5.231,5.231,0,0,0,0,7.4l16.814,16.814v23.784a5.232,5.232,0,0,0,5.232,5.232h23.781l16.817,16.817a5.231,5.231,0,0,0,3.7,1.532h0l10.118-67.877-10.119-67.877h0Z" transform="translate(-66.569 -133.138)" fill="#fdbf00"/>
      <path id="Path_327" data-name="Path 327" d="M322.345,197.314,305.528,180.5V156.716a5.232,5.232,0,0,0-5.232-5.232H276.511L259.7,134.67a5.231,5.231,0,0,0-3.7-1.532V268.892a5.23,5.23,0,0,0,3.7-1.532l16.817-16.817H300.3a5.232,5.232,0,0,0,5.232-5.232V221.531l16.817-16.817A5.231,5.231,0,0,0,322.345,197.314Z" transform="translate(-188.123 -133.138)" fill="#ff9102"/>
    </g>
    <g id="Group_47" data-name="Group 47" transform="translate(96.103 77.24)">
      <path id="Path_328" data-name="Path 328" d="M183.634,217.093l-8.164,8.164H163.92a5.232,5.232,0,0,0-5.232,5.232V242.04l-8.164,8.164a5.231,5.231,0,0,0,0,7.4l8.164,8.164v11.551a5.232,5.232,0,0,0,5.232,5.232h11.547l8.167,8.167a5.215,5.215,0,0,0,3.7,1.532h0l6.953-39.131-6.953-37.556A5.216,5.216,0,0,0,183.634,217.093Z" transform="translate(-148.992 -215.561)" fill="#ffd74a"/>
    </g>
    <path id="Path_329" data-name="Path 329" d="M292.81,250.2l-8.167-8.167V230.489a5.232,5.232,0,0,0-5.232-5.232H267.86l-8.164-8.164a5.214,5.214,0,0,0-3.7-1.532v76.687a5.215,5.215,0,0,0,3.7-1.532l8.167-8.167h11.548a5.232,5.232,0,0,0,5.232-5.232V265.769l8.167-8.167a5.231,5.231,0,0,0,0-7.4Z" transform="translate(-121.553 -138.321)" fill="#fdbf00"/>
  </g>
</svg>
