<svg xmlns="http://www.w3.org/2000/svg"  width="75" height="75" viewBox="0 0 75 75">
  <g id="padlock" transform="translate(-3)">
    <path id="Path_291" data-name="Path 291" d="M43.25,47.333H8.75A5.757,5.757,0,0,1,3,41.583V14.75A5.757,5.757,0,0,1,8.75,9h34.5A5.757,5.757,0,0,1,49,14.75V41.583A5.757,5.757,0,0,1,43.25,47.333Zm-34.5-34.5A1.919,1.919,0,0,0,6.833,14.75V41.583A1.919,1.919,0,0,0,8.75,43.5h34.5a1.919,1.919,0,0,0,1.917-1.917V14.75a1.919,1.919,0,0,0-1.917-1.917Z" transform="translate(0 14)"/>
    <path id="Path_292" data-name="Path 292" d="M34.75,26.833a1.917,1.917,0,0,1-1.917-1.917V15.333a11.5,11.5,0,0,0-23,0v9.583a1.917,1.917,0,0,1-3.833,0V15.333a15.333,15.333,0,1,1,30.667,0v9.583A1.917,1.917,0,0,1,34.75,26.833Z" transform="translate(4.667)"/>
    <path id="Path_293" data-name="Path 293" d="M15.111,23.222a5.111,5.111,0,1,1,5.111-5.111A5.116,5.116,0,0,1,15.111,23.222Zm0-6.389a1.278,1.278,0,1,0,1.278,1.278A1.28,1.28,0,0,0,15.111,16.833Z" transform="translate(10.889 20.222)"/>
    <path id="Path_294" data-name="Path 294" d="M13.167,26.611a1.917,1.917,0,0,1-1.917-1.917V17.667a1.917,1.917,0,1,1,3.833,0v7.028A1.917,1.917,0,0,1,13.167,26.611Z" transform="translate(12.833 24.5)"/>
  </g>
</svg>
