<svg xmlns="http://www.w3.org/2000/svg" width="66.404" height="66.404" viewBox="0 0 66.404 66.404">
  <g id="chat" transform="translate(0.5 0.5)">
    <g id="Group_32" data-name="Group 32" transform="translate(12.263 12.263)">
      <g id="Group_31" data-name="Group 31">
        <path id="Path_295" data-name="Path 295" d="M122.57,96H98.044a2.044,2.044,0,1,0,0,4.088H122.57a2.044,2.044,0,0,0,0-4.088Z" transform="translate(-96 -96)" stroke="#fff" stroke-width="1"/>
      </g>
    </g>
    <g id="Group_34" data-name="Group 34" transform="translate(12.263 20.439)">
      <g id="Group_33" data-name="Group 33">
        <path id="Path_296" data-name="Path 296" d="M114.395,160H98.044a2.044,2.044,0,0,0,0,4.088h16.351a2.044,2.044,0,0,0,0-4.088Z" transform="translate(-96 -160)" stroke="#fff" stroke-width="1"/>
      </g>
    </g>
    <g id="Group_36" data-name="Group 36">
      <g id="Group_35" data-name="Group 35">
        <path id="Path_297" data-name="Path 297" d="M44.965,0H8.176A8.184,8.184,0,0,0,0,8.176V49.053A2.042,2.042,0,0,0,1.177,50.9a2.074,2.074,0,0,0,.867.192,2.043,2.043,0,0,0,1.308-.474l11.7-9.745H44.965A8.184,8.184,0,0,0,53.141,32.7V8.176A8.184,8.184,0,0,0,44.965,0Zm4.088,32.7a4.092,4.092,0,0,1-4.088,4.088H14.307A2.042,2.042,0,0,0,13,37.264L4.088,44.692V8.176A4.092,4.092,0,0,1,8.176,4.088h36.79a4.092,4.092,0,0,1,4.088,4.088Z" stroke="#fff" stroke-width="1"/>
      </g>
    </g>
    <g id="Group_38" data-name="Group 38" transform="translate(16.351 16.351)">
      <g id="Group_37" data-name="Group 37">
        <path id="Path_298" data-name="Path 298" d="M168.878,128a2.044,2.044,0,0,0,0,4.088,4.092,4.092,0,0,1,4.088,4.088v34.578l-6.9-5.518a2.059,2.059,0,0,0-1.275-.446H136.176a4.092,4.092,0,0,1-4.088-4.088v-2.044a2.044,2.044,0,0,0-4.088,0V160.7a8.184,8.184,0,0,0,8.176,8.176H164.07l9.659,7.73a2.045,2.045,0,0,0,3.323-1.6V136.176A8.184,8.184,0,0,0,168.878,128Z" transform="translate(-128 -128)" stroke="#fff" stroke-width="1"/>
      </g>
    </g>
  </g>
</svg>
