<svg xmlns="http://www.w3.org/2000/svg" width="63.892" height="40.568" viewBox="0 0 63.892 40.568">
  <g id="group" transform="translate(0 -92.25)">
    <g id="Group_39" data-name="Group 39" transform="translate(0 92.25)">
      <path id="Path_305" data-name="Path 305" d="M55.258,110.1a7.294,7.294,0,1,0-8.369,0,12.639,12.639,0,0,0-4.311,2.528,16.354,16.354,0,0,0-5.916-3.224,9.241,9.241,0,1,0-9.557,0,16.491,16.491,0,0,0-5.853,3.186,12.741,12.741,0,0,0-4.26-2.478,7.294,7.294,0,1,0-8.369,0A12.8,12.8,0,0,0,0,122.211v.834a.054.054,0,0,0,.051.051H15.512a17,17,0,0,0-.139,2.136v.86a6.723,6.723,0,0,0,6.725,6.725H41.693a6.722,6.722,0,0,0,6.725-6.725v-.86a17,17,0,0,0-.139-2.136H63.842a.054.054,0,0,0,.051-.051v-.834A12.853,12.853,0,0,0,55.258,110.1Zm-9.456-5.98a5.272,5.272,0,1,1,5.373,5.272h-.2A5.264,5.264,0,0,1,45.8,104.121Zm-21.163-2.63a7.219,7.219,0,1,1,7.636,7.206H31.44A7.229,7.229,0,0,1,24.639,101.491ZM7.5,104.121a5.272,5.272,0,1,1,5.373,5.272h-.2A5.272,5.272,0,0,1,7.5,104.121Zm8.369,16.94H2.048a10.8,10.8,0,0,1,10.644-9.646h.152a10.689,10.689,0,0,1,6.89,2.566A16.6,16.6,0,0,0,15.866,121.061Zm30.5,5.031a4.71,4.71,0,0,1-4.7,4.7H22.073a4.71,4.71,0,0,1-4.7-4.7v-.86a14.522,14.522,0,0,1,14.07-14.5c.139.013.291.013.43.013s.291,0,.43-.013a14.522,14.522,0,0,1,14.07,14.5Zm1.5-5.031a16.555,16.555,0,0,0-3.83-7.029A10.741,10.741,0,0,1,51,111.415h.152a10.8,10.8,0,0,1,10.644,9.646Z" transform="translate(0 -92.25)" fill="#7f1515"/>
    </g>
  </g>
</svg>
