<svg xmlns="http://www.w3.org/2000/svg" xmlns:xlink="http://www.w3.org/1999/xlink" width="46.88" height="49.047" viewBox="0 0 46.88 49.047">
  <defs>
    <linearGradient id="linear-gradient" x1="1" y1="0.091" x2="0" y2="0.976" gradientUnits="objectBoundingBox">
      <stop offset="0" stop-color="#2cd9d3"/>
      <stop offset="1" stop-color="#023ecb"/>
    </linearGradient>
  </defs>
  <g id="invitation" transform="translate(-9.668 0)">
    <g id="Group_67" data-name="Group 67" transform="translate(9.668 0)">
      <g id="Group_66" data-name="Group 66" transform="translate(0 0)">
        <path id="Path_361" data-name="Path 361" d="M56.176,17.479l-6.029-5.032V5.308a1.128,1.128,0,0,0-1.165-1.087H40.206L36.687,1.285a5.6,5.6,0,0,0-7.15.011L26.019,4.221H17.132a1.128,1.128,0,0,0-1.165,1.087v7.251l-5.917,4.92a1.108,1.108,0,0,0-.381.863h.022V43.433a5.594,5.594,0,0,0,5.57,5.615H50.953a5.593,5.593,0,0,0,5.57-5.615V18.341h.022A1.017,1.017,0,0,0,56.176,17.479Zm-6.029-2.118,3.53,2.936-3.53,2.622ZM30.972,3.011a3.365,3.365,0,0,1,4.292.011l1.423,1.2H29.526ZM18.208,6.462h29.7V22.589l-12.764,9.5a3.413,3.413,0,0,1-4.046,0L18.208,22.5V6.462Zm-2.241,9v5.368l-3.418-2.544Zm38.327,27.96a3.355,3.355,0,0,1-3.328,3.384H15.26a3.353,3.353,0,0,1-3.328-3.373V20.572L29.773,33.9a5.615,5.615,0,0,0,6.679,0L54.293,20.572Z" transform="translate(-9.668 0)" fill="url(#linear-gradient)"/>
      </g>
    </g>
    <g id="Group_69" data-name="Group 69" transform="translate(25.044 15.428)">
      <g id="Group_68" data-name="Group 68">
        <path id="Path_362" data-name="Path 362" d="M154.045,137.663h-6.052a1.121,1.121,0,1,0,0,2.241h6.052a1.121,1.121,0,1,0,0-2.241Z" transform="translate(-146.873 -137.663)" fill="url(#linear-gradient)"/>
      </g>
    </g>
    <g id="Group_71" data-name="Group 71" transform="translate(25.044 21.031)">
      <g id="Group_70" data-name="Group 70">
        <path id="Path_363" data-name="Path 363" d="M161.89,187.663h-13.9a1.121,1.121,0,1,0,0,2.241h13.9a1.121,1.121,0,1,0,0-2.241Z" transform="translate(-146.873 -187.663)" fill="url(#linear-gradient)"/>
      </g>
    </g>
  </g>
</svg>
