<svg xmlns="http://www.w3.org/2000/svg" xmlns:xlink="http://www.w3.org/1999/xlink" width="75.462" height="90.962" viewBox="0 0 75.462 90.962">
  <defs>
    <linearGradient id="linear-gradient" x1="0.773" y1="-0.29" x2="0.5" y2="1" gradientUnits="objectBoundingBox">
      <stop offset="0" stop-color="#21dc7e"/>
      <stop offset="1" stop-color="#367b58"/>
    </linearGradient>
  </defs>
  <g id="music-notes" transform="translate(-0.5 0)">
    <path id="Path_274" data-name="Path 274" d="M23.3,70.271a14.109,14.109,0,0,0-9.4-3.493C6.507,66.778.5,72.2.5,78.87S6.507,90.962,13.892,90.962,27.284,85.537,27.284,78.87V36.4l44.69-15.393V53.272a14.113,14.113,0,0,0-9.4-3.493c-7.385,0-13.392,5.425-13.392,12.092S55.185,73.964,62.57,73.964s13.392-5.424,13.392-12.092V1.8a2.008,2.008,0,0,0-2.7-1.682l-7.9,2.719c-2.392.824-.974,4.19,1.422,3.364l5.19-1.787V17.151L27.284,32.544V19.8l24.452-8.422c2.393-.824.974-4.19-1.421-3.365L24.579,16.88A1.817,1.817,0,0,0,23.3,18.562Zm-9.4,17.09c-5.185,0-9.4-3.809-9.4-8.491s4.219-8.491,9.4-8.491,9.4,3.809,9.4,8.491S19.077,87.361,13.892,87.361Zm48.678-17c-5.186,0-9.4-3.809-9.4-8.491s4.218-8.491,9.4-8.491,9.4,3.809,9.4,8.491S67.755,70.363,62.57,70.363Zm0,0" fill="url(#linear-gradient)"/>
    <path id="Path_275" data-name="Path 275" d="M286.577,33.957a1.994,1.994,0,1,0-1.991-2.081A2.018,2.018,0,0,0,286.577,33.957Zm0,0" transform="translate(-228.188 -24.072)" fill="url(#linear-gradient)"/>
  </g>
</svg>
