<svg xmlns="http://www.w3.org/2000/svg" xmlns:xlink="http://www.w3.org/1999/xlink" width="119.361" height="82.876" viewBox="0 0 119.361 82.876">
  <defs>
    <linearGradient id="linear-gradient" x1="0.386" y1="-0.763" x2="0.5" y2="1" gradientUnits="objectBoundingBox">
      <stop offset="0" stop-color="#bc3838"/>
      <stop offset="1" stop-color="#912fdb"/>
    </linearGradient>
  </defs>
  <g id="mask" transform="translate(0 -68.714)">
    <g id="Group_19" data-name="Group 19" transform="translate(13.336 103.761)">
      <g id="Group_18" data-name="Group 18" transform="translate(0 0)">
        <path id="Path_269" data-name="Path 269" d="M67.927,201.395c-9.26-2.761-16.4,3.908-16.694,4.248a2.124,2.124,0,1,0,2.867,3.016,13.975,13.975,0,0,1,12.552-3.207,2.124,2.124,0,0,0,2.678-1.36c.007-.021.013-.042.019-.063A2.124,2.124,0,0,0,67.927,201.395Z" transform="translate(-50.234 -200.727)" fill="url(#linear-gradient)"/>
      </g>
    </g>
    <g id="Group_21" data-name="Group 21" transform="translate(39.884 97.121)">
      <g id="Group_20" data-name="Group 20">
        <path id="Path_270" data-name="Path 270" d="M167.586,176.418v-.042c-9.26-2.74-16.4,3.908-16.694,4.248a2.126,2.126,0,1,0,2.931,3.08,13.826,13.826,0,0,1,12.552-3.207,2.127,2.127,0,1,0,1.211-4.078Z" transform="translate(-150.232 -175.715)" fill="url(#linear-gradient)"/>
      </g>
    </g>
    <g id="Group_23" data-name="Group 23" transform="translate(26.174 120.016)">
      <g id="Group_22" data-name="Group 22">
        <path id="Path_271" data-name="Path 271" d="M129,263.485a2.169,2.169,0,0,0-2.591-1.466l-26.166,6.627a2.124,2.124,0,0,0-1.593,2.546v0c1.465,5.777,7.094,9.664,13.975,9.664a18.2,18.2,0,0,0,4.481-.573C125.471,278.161,130.8,270.643,129,263.485Zm-12.934,12.743h0a14,14,0,0,1-3.419.425,10.429,10.429,0,0,1-9.027-4.481l21.472-5.437C124.9,270.9,121.266,274.912,116.062,276.228Z" transform="translate(-98.591 -261.953)" fill="url(#linear-gradient)"/>
      </g>
    </g>
    <g id="Group_25" data-name="Group 25" transform="translate(0 68.714)">
      <g id="Group_24" data-name="Group 24" transform="translate(0 0)">
        <path id="Path_272" data-name="Path 272" d="M117.826,84.405l-.014,0L61.231,68.791a2.124,2.124,0,0,0-2.612,1.484v0l-.935,3.335L1.592,87.821a2.124,2.124,0,0,0-1.529,2.57l9.473,37.444a31.412,31.412,0,0,0,52.5,14.719A31.455,31.455,0,0,0,109,124.245l10.28-37.21A2.124,2.124,0,0,0,117.826,84.405Zm-71.1,62.077a27.186,27.186,0,0,1-33.051-19.64l-.018-.069L4.693,91.41,57.557,78.051l8.963,35.384A27.25,27.25,0,0,1,46.725,146.482Zm58.194-23.363a27.228,27.228,0,0,1-40.014,16.227,31.689,31.689,0,0,0,4.821-8.835l17.565,4.864a2.638,2.638,0,0,0,2.7-1.55c1.954-7.094-3.207-14.74-11.533-16.991a17.8,17.8,0,0,0-7.158-.488,31.456,31.456,0,0,0-.7-3.972L67.029,98.461a16.991,16.991,0,0,0,6.9,1.529,15.927,15.927,0,0,0,4.248-.573,2.152,2.152,0,1,0-1.168-4.142,13.3,13.3,0,0,1-11.448-2.634L61.38,76.161l.765-2.782,52.481,14.506Zm-33.982,3.292a31.2,31.2,0,0,0,.637-5.8,13.485,13.485,0,0,1,5.8.319c5.182,1.423,8.729,5.5,8.835,9.685Z" transform="translate(0 -68.714)" fill="url(#linear-gradient)"/>
      </g>
    </g>
    <g id="Group_27" data-name="Group 27" transform="translate(87.046 98.418)">
      <g id="Group_26" data-name="Group 26" transform="translate(0 0)">
        <path id="Path_273" data-name="Path 273" d="M346.6,186.185a2.125,2.125,0,0,0-2.612-1.487,13.827,13.827,0,0,1-12.488-3.483,2.125,2.125,0,1,0-2.995,3.016,19.115,19.115,0,0,0,12.361,5.14,15.892,15.892,0,0,0,4.248-.573A2.125,2.125,0,0,0,346.6,186.185Z" transform="translate(-327.874 -180.598)" fill="url(#linear-gradient)"/>
      </g>
    </g>
  </g>
</svg>
