<svg xmlns="http://www.w3.org/2000/svg" xmlns:xlink="http://www.w3.org/1999/xlink" width="28.166" height="28.207" viewBox="0 0 28.166 28.207">
  <defs>
    <linearGradient id="linear-gradient" x1="1.29" y1="-0.225" x2="0.052" y2="1.061" gradientUnits="objectBoundingBox">
      <stop offset="0" stop-color="#00ff3c"/>
      <stop offset="1" stop-color="#13b7f5"/>
    </linearGradient>
  </defs>
  <g id="phone-call" transform="translate(-0.344 0)">
    <g id="Group_56" data-name="Group 56" transform="translate(0.344 0)">
      <path id="Path_342" data-name="Path 342" d="M22.616,43.248a2.774,2.774,0,0,0-2.012-.923,2.869,2.869,0,0,0-2.036.917l-1.881,1.875c-.155-.083-.31-.161-.458-.238-.214-.107-.417-.208-.589-.316a20.446,20.446,0,0,1-4.9-4.465,12.062,12.062,0,0,1-1.607-2.536c.488-.446.941-.911,1.381-1.357.167-.167.333-.339.5-.506a2.731,2.731,0,0,0,0-4.12L9.388,29.954c-.185-.185-.375-.375-.554-.566-.357-.369-.732-.75-1.119-1.107a2.818,2.818,0,0,0-1.994-.875,2.916,2.916,0,0,0-2.024.875l-.012.012L1.661,30.335A4.355,4.355,0,0,0,.369,33.1a10.436,10.436,0,0,0,.762,4.417,25.633,25.633,0,0,0,4.554,7.6,28.015,28.015,0,0,0,9.329,7.3,14.535,14.535,0,0,0,5.239,1.548c.125.006.256.012.375.012A4.486,4.486,0,0,0,24.063,52.5c.006-.012.018-.018.024-.03A13.532,13.532,0,0,1,25.129,51.4c.256-.244.518-.5.774-.768a2.97,2.97,0,0,0,.9-2.06,2.861,2.861,0,0,0-.917-2.042Zm2.131,6.269c-.006,0-.006.006,0,0-.232.25-.47.476-.726.726a15.653,15.653,0,0,0-1.149,1.191,2.87,2.87,0,0,1-2.238.947c-.089,0-.185,0-.274-.006a12.912,12.912,0,0,1-4.644-1.393A26.445,26.445,0,0,1,6.929,44.1a24.169,24.169,0,0,1-4.286-7.138,8.5,8.5,0,0,1-.667-3.727A2.733,2.733,0,0,1,2.8,31.466l2.03-2.03a1.353,1.353,0,0,1,.9-.423,1.273,1.273,0,0,1,.869.417l.018.018c.363.339.708.691,1.072,1.066.185.191.375.381.566.577l1.625,1.625a1.136,1.136,0,0,1,0,1.846c-.173.173-.339.345-.512.512-.5.512-.976.988-1.494,1.453-.012.012-.024.018-.03.03a1.214,1.214,0,0,0-.31,1.351l.018.054A13.048,13.048,0,0,0,9.477,41.1l.006.006a21.851,21.851,0,0,0,5.286,4.81,8.128,8.128,0,0,0,.732.4c.214.107.417.208.589.316.024.012.048.03.071.042a1.291,1.291,0,0,0,.589.149,1.273,1.273,0,0,0,.9-.411l2.036-2.036a1.347,1.347,0,0,1,.9-.446,1.212,1.212,0,0,1,.857.435l.012.012,3.28,3.28A1.177,1.177,0,0,1,24.748,49.516Z" transform="translate(-0.344 -25.774)" fill="url(#linear-gradient)"/>
      <path id="Path_343" data-name="Path 343" d="M245.605,87.52a7.662,7.662,0,0,1,6.239,6.239.8.8,0,0,0,.792.667,1.065,1.065,0,0,0,.137-.012.8.8,0,0,0,.661-.929,9.264,9.264,0,0,0-7.549-7.549.808.808,0,0,0-.929.655A.8.8,0,0,0,245.605,87.52Z" transform="translate(-230.382 -80.81)" fill="url(#linear-gradient)"/>
      <path id="Path_344" data-name="Path 344" d="M262.139,12.443A15.255,15.255,0,0,0,249.709.012a.8.8,0,1,0-.262,1.584A13.626,13.626,0,0,1,260.556,12.7a.8.8,0,0,0,.792.667,1.062,1.062,0,0,0,.137-.012A.789.789,0,0,0,262.139,12.443Z" transform="translate(-233.986 0)" fill="url(#linear-gradient)"/>
    </g>
  </g>
</svg>
