<svg xmlns="http://www.w3.org/2000/svg" xmlns:xlink="http://www.w3.org/1999/xlink" width="129.34" height="129.34" viewBox="0 0 129.34 129.34">
  <defs>
    <linearGradient id="linear-gradient" x1="0.5" y1="1" x2="0.5" gradientUnits="objectBoundingBox">
      <stop offset="0" stop-color="#9f2fff"/>
      <stop offset="1" stop-color="#0bb1d3"/>
    </linearGradient>
  </defs>
  <path id="select" d="M109.479,28.12a20.741,20.741,0,0,0-8.073,1.627l-12.853-7.07a22.916,22.916,0,0,0-45.765,0L29.935,29.747a21.1,21.1,0,1,0,4.237,2.43l8.822-4.852a23.012,23.012,0,0,0,16.42,18.694V84.472a6.257,6.257,0,0,1-.638,2.752l-1.75-8.749A13.484,13.484,0,0,0,43.841,67.666a5.287,5.287,0,0,0-4.4,8.221l2.147,3.221A9.307,9.307,0,0,1,43.073,83.1l1.444,11.543a14.17,14.17,0,0,0,1.746,5.313l6.89,14.173v3.692H48.981V130.34H94.876V117.823H90.7v-3.478l3.338-4.45a14.682,14.682,0,0,0,2.921-8.762V74.014a6.238,6.238,0,0,0-8.587-5.8,6.2,6.2,0,0,0-10.189-3,6.066,6.066,0,0,0-6.258-1.243V46.017a23.024,23.024,0,0,0,16.418-18.69l8.82,4.852a20.822,20.822,0,1,0,12.312-4.06ZM11.865,62.313a12.512,12.512,0,0,1,19.993,0,16.565,16.565,0,0,1-19.993,0ZM15.6,46.895a6.258,6.258,0,1,1,6.258,6.258A6.266,6.266,0,0,1,15.6,46.895ZM38.55,48.981A16.593,16.593,0,0,1,34.862,59.42a16.681,16.681,0,0,0-6.114-4.752,10.431,10.431,0,1,0-13.773,0A16.7,16.7,0,0,0,8.861,59.42,16.682,16.682,0,1,1,38.55,48.981ZM59.412,19.775a6.258,6.258,0,1,1,6.258,6.258A6.266,6.266,0,0,1,59.412,19.775ZM65.67,38.55A6.237,6.237,0,0,0,60.165,41.9a18.648,18.648,0,0,1-6.256-3.34,12.459,12.459,0,0,1,23.523,0A18.611,18.611,0,0,1,71.177,41.9,6.243,6.243,0,0,0,65.67,38.55ZM90.7,126.168H53.153V122H90.7ZM74.014,67.756A2.087,2.087,0,0,1,76.1,69.842v8.345h4.172V69.842a2.086,2.086,0,0,1,4.172,0v8.345h4.172V74.014a2.086,2.086,0,1,1,4.172,0v27.12a10.489,10.489,0,0,1-2.086,6.258l-4.172,5.564v4.867H57.325v-4.652l-7.377-15.16a10.3,10.3,0,0,1-1.293-3.878L47.212,82.588A13.475,13.475,0,0,0,45.059,76.8L42.91,73.576a1.116,1.116,0,0,1,.928-1.736,9.3,9.3,0,0,1,9.093,7.454L55.615,92.7H60.7l1.782-3.565a10.487,10.487,0,0,0,1.1-4.662V44.809a2.086,2.086,0,0,1,4.172,0V78.187h4.172V69.842A2.087,2.087,0,0,1,74.014,67.756ZM80.6,35.279a16.614,16.614,0,0,0-8.019-7.754,10.431,10.431,0,1,0-13.827,0,16.614,16.614,0,0,0-8.021,7.756,18.777,18.777,0,1,1,29.867,0ZM99.482,62.313a12.512,12.512,0,0,1,19.993,0,16.565,16.565,0,0,1-19.993,0Zm3.738-15.419a6.258,6.258,0,1,1,6.258,6.258A6.266,6.266,0,0,1,103.22,46.895ZM122.479,59.42a16.682,16.682,0,0,0-6.114-4.752,10.431,10.431,0,1,0-13.773,0,16.7,16.7,0,0,0-6.114,4.752,16.689,16.689,0,1,1,26,0Zm-104.79,42.1v-27.5H13.517v27.5a6.258,6.258,0,1,0,4.172,0ZM15.6,109.479a2.086,2.086,0,1,1,2.086-2.086A2.087,2.087,0,0,1,15.6,109.479ZM28.12,74.014a6.243,6.243,0,0,0-2.086,12.133v27.5h4.172v-27.5A6.243,6.243,0,0,0,28.12,74.014Zm0,8.345a2.086,2.086,0,1,1,2.086-2.086A2.087,2.087,0,0,1,28.12,82.359Zm81.359,19.159v-27.5h-4.172v27.5a6.258,6.258,0,1,0,4.172,0Zm-2.086,7.961a2.086,2.086,0,1,1,2.086-2.086A2.087,2.087,0,0,1,107.392,109.479Zm12.517-35.464a6.243,6.243,0,0,0-2.086,12.133v27.5H122v-27.5a6.243,6.243,0,0,0-2.086-12.133Zm0,8.345A2.086,2.086,0,1,1,122,80.273,2.087,2.087,0,0,1,119.909,82.359Z" transform="translate(-1 -1)" fill="url(#linear-gradient)"/>
</svg>
