<svg xmlns="http://www.w3.org/2000/svg" width="90.392" height="87.972" viewBox="0 0 90.392 87.972">
  <g id="shopping-cart" transform="translate(0 -6.028)">
    <g id="Group_29" data-name="Group 29" transform="translate(0 6.028)">
      <g id="Group_28" data-name="Group 28" transform="translate(0 0)">
        <path id="Path_287" data-name="Path 287" d="M106.09,350.322a9.437,9.437,0,1,0,9.437,9.437A9.437,9.437,0,0,0,106.09,350.322Zm0,14.68a5.243,5.243,0,1,1,5.243-5.243A5.243,5.243,0,0,1,106.09,365Z" transform="translate(-77.255 -281.224)" fill="maroon"/>
        <path id="Path_288" data-name="Path 288" d="M304.621,350.322a9.437,9.437,0,1,0,9.437,9.437A9.437,9.437,0,0,0,304.621,350.322Zm0,14.68a5.243,5.243,0,1,1,5.243-5.243A5.243,5.243,0,0,1,304.621,365Z" transform="translate(-235.942 -281.224)" fill="maroon"/>
        <path id="Path_289" data-name="Path 289" d="M89.964,20.079a2.622,2.622,0,0,0-1.678-.839L20.027,18.3,18.14,12.529a9.647,9.647,0,0,0-9.017-6.5H2.1a2.1,2.1,0,1,0,0,4.194H9.122a5.453,5.453,0,0,1,5.033,3.67L27.472,54.051l-1.048,2.412a10.066,10.066,0,0,0,.944,9.122,9.751,9.751,0,0,0,7.864,4.4H76.019a2.1,2.1,0,0,0,0-4.194H35.231a5.348,5.348,0,0,1-4.4-2.517,5.767,5.767,0,0,1-.524-5.033l.839-1.887,44.143-4.614a11.534,11.534,0,0,0,9.961-8.808l5.033-21.075A1.783,1.783,0,0,0,89.964,20.079ZM81.157,41.993a7.13,7.13,0,0,1-6.4,5.557L31.142,52.059,21.39,22.49l64.275.944Z" transform="translate(0 -6.028)" fill="maroon"/>
      </g>
    </g>
  </g>
</svg>
