<svg id="Group_48" data-name="Group 48" xmlns="http://www.w3.org/2000/svg" xmlns:xlink="http://www.w3.org/1999/xlink" width="255.354" height="255.354" viewBox="0 0 255.354 255.354">
  <defs>
    <linearGradient id="linear-gradient" y1="-38.449" x2="1" y2="-38.449" gradientUnits="objectBoundingBox">
      <stop offset="0" stop-color="#00f38d"/>
      <stop offset="1" stop-color="#009eff"/>
    </linearGradient>
  </defs>
  <path id="Path_318" data-name="Path 318" d="M255.354,127.677A127.677,127.677,0,1,1,127.677,0,127.675,127.675,0,0,1,255.354,127.677Zm0,0" fill="url(#linear-gradient)"/>
  <path id="Path_319" data-name="Path 319" d="M201.769,160.5a48.352,48.352,0,1,0-58.056,0A82.976,82.976,0,0,0,89.9,238.084h14.962a67.878,67.878,0,0,1,135.756,0h14.962A82.978,82.978,0,0,0,201.77,160.5Zm-62.418-38.646a33.39,33.39,0,1,1,33.39,33.392A33.427,33.427,0,0,1,139.351,121.853Zm0,0" transform="translate(-45.064 -36.843)" fill="#fff"/>
</svg>
