<svg xmlns="http://www.w3.org/2000/svg" width="44.932" height="41.188" viewBox="0 0 44.932 41.188">
  <g id="sign-in" transform="translate(0 -1)">
    <path id="Path_299" data-name="Path 299" d="M9.744,16.489a3.744,3.744,0,1,1,3.744-3.744A3.748,3.748,0,0,1,9.744,16.489Zm0-4.68a.936.936,0,1,0,.936.936A.938.938,0,0,0,9.744,11.808Z" transform="translate(5.233 6.977)" fill="#7f1515"/>
    <path id="Path_300" data-name="Path 300" d="M17.573,22.425a1.4,1.4,0,0,1-1.4-1.4V19.148a2.343,2.343,0,0,0-2.34-2.34H9.148a2.343,2.343,0,0,0-2.34,2.34v1.872a1.4,1.4,0,1,1-2.808,0V19.148A5.153,5.153,0,0,1,9.148,14h4.68a5.153,5.153,0,0,1,5.148,5.148v1.872A1.4,1.4,0,0,1,17.573,22.425Z" transform="translate(3.489 11.338)" fill="#7f1515"/>
    <path id="Path_301" data-name="Path 301" d="M19.4,20.362a1.391,1.391,0,0,1-.914-.339,1.405,1.405,0,0,1-.152-1.981l2.024-2.363-2.024-2.363a1.4,1.4,0,0,1,2.132-1.829l2.808,3.276a1.405,1.405,0,0,1,0,1.829l-2.808,3.276a1.4,1.4,0,0,1-1.067.492Z" transform="translate(15.699 8.721)" fill="#7f1515"/>
    <path id="Path_302" data-name="Path 302" d="M25.233,15.558H15.4a1.4,1.4,0,0,1,0-2.808h9.829a1.4,1.4,0,0,1,0,2.808Z" transform="translate(12.21 10.248)" fill="#7f1515"/>
    <path id="Path_303" data-name="Path 303" d="M39.783,42.188H5.148A5.153,5.153,0,0,1,0,37.039V6.148A5.153,5.153,0,0,1,5.148,1H39.783a5.153,5.153,0,0,1,5.148,5.148V37.039A5.153,5.153,0,0,1,39.783,42.188ZM5.148,3.808a2.343,2.343,0,0,0-2.34,2.34V37.039a2.343,2.343,0,0,0,2.34,2.34H39.783a2.343,2.343,0,0,0,2.34-2.34V6.148a2.343,2.343,0,0,0-2.34-2.34Z" fill="#7f1515"/>
    <path id="Path_304" data-name="Path 304" d="M43.528,7.308H1.4A1.4,1.4,0,0,1,1.4,4.5H43.528a1.4,1.4,0,1,1,0,2.808Z" transform="translate(0 3.053)" fill="#7f1515"/>
  </g>
</svg>
