<svg xmlns="http://www.w3.org/2000/svg" width="62" height="62" viewBox="0 0 62 62">
  <g id="social-media" transform="translate(-1 -0.905)">
    <path id="Path_309" data-name="Path 309" d="M32,52.9a3,3,0,1,0,3,3A3,3,0,0,0,32,52.9Zm0,4a1,1,0,1,1,1-1A1,1,0,0,1,32,56.9Z" fill="#7f1515"/>
    <path id="Path_310" data-name="Path 310" d="M58,17.905H49v-10a7.008,7.008,0,0,0-7-7H22a7.008,7.008,0,0,0-7,7v3H2a1,1,0,0,0-1,1v14a1,1,0,0,0,1,1H15v10H4a3,3,0,0,0-3,3v12a3,3,0,0,0,3,3H15v1a7.008,7.008,0,0,0,7,7H42a7.008,7.008,0,0,0,7-7v-18h9a5.006,5.006,0,0,0,5-5v-10a5.006,5.006,0,0,0-5-5Zm-36-15H42a5.009,5.009,0,0,1,4.9,4H17.1a5.009,5.009,0,0,1,4.9-4Zm-2.851,10L12,18.625,4.851,12.906h14.3ZM3,13.986l8.375,6.7a1,1,0,0,0,1.25,0L21,13.986v10.92H3ZM17,26.905h5a1,1,0,0,0,1-1v-14a1,1,0,0,0-1-1H17v-2H47v9.1a5.009,5.009,0,0,0-4,4.9v10a5.009,5.009,0,0,0,4,4.9V48.9H25V47.523L28.447,45.8a1,1,0,0,0,0-1.789L25,42.287V39.9a3,3,0,0,0-3-3H17ZM3,51.9v-12a1,1,0,0,1,1-1H22a1,1,0,0,1,1,1v3a1,1,0,0,0,.553.9l2.211,1.1-2.211,1.1a1,1,0,0,0-.553.9v5a1,1,0,0,1-1,1H4A1,1,0,0,1,3,51.9Zm39,9H22a5.006,5.006,0,0,1-5-5v-1h5a3,3,0,0,0,3-3v-1H47v5A5.006,5.006,0,0,1,42,60.9Zm19-28a3,3,0,0,1-3,3H48a3,3,0,0,1-3-3v-10a3,3,0,0,1,3-3H58a3,3,0,0,1,3,3Z" fill="#7f1515"/>
    <path id="Path_311" data-name="Path 311" d="M53,23.905a5,5,0,1,0,5,5,5.006,5.006,0,0,0-5-5Zm0,8a3,3,0,1,1,3-3A3,3,0,0,1,53,31.905Z" fill="#7f1515"/>
    <path id="Path_312" data-name="Path 312" d="M57,21.905h2v2H57Z" fill="#7f1515"/>
    <path id="Path_313" data-name="Path 313" d="M5,40.9H21v2H5Z" fill="#7f1515"/>
    <path id="Path_314" data-name="Path 314" d="M7,44.9H19v2H7Z" fill="#7f1515"/>
    <path id="Path_315" data-name="Path 315" d="M5,48.9H21v2H5Z" fill="#7f1515"/>
  </g>
</svg>
