<svg xmlns="http://www.w3.org/2000/svg" width="47.925" height="52.327" viewBox="0 0 47.925 52.327">
  <g id="support" transform="translate(-17.756)">
    <g id="Group_40" data-name="Group 40" transform="translate(17.756)">
      <path id="Path_306" data-name="Path 306" d="M60.63,21.63H60.5V18.457a18.457,18.457,0,0,0-36.914,0V21.63h-.777a5.274,5.274,0,0,0-5.051,5.44v8.1a5.116,5.116,0,0,0,4.985,5.244H27.6a1.23,1.23,0,0,0,1.171-1.287c0-.024,0-.049-.006-.073V23.185c0-.777-.453-1.554-1.166-1.554H26.177V18.457a15.867,15.867,0,1,1,31.733,0V21.63H56.485c-.712,0-1.166.777-1.166,1.554V39.051a1.23,1.23,0,0,0,1.093,1.354l.073.006h1.489l-.13.194a10.232,10.232,0,0,1-8.225,4.08,6.411,6.411,0,0,0-12.693,1.231A6.476,6.476,0,0,0,43.4,52.327a6.67,6.67,0,0,0,4.663-2.008,5.7,5.7,0,0,0,1.554-3.109,12.823,12.823,0,0,0,10.3-5.116l1.231-1.813c2.785-.194,4.533-1.943,4.533-4.469v-8.1C65.682,24.933,63.609,21.63,60.63,21.63ZM26.177,37.821H22.809a2.526,2.526,0,0,1-2.464-2.586q0-.034,0-.069v-8.1a2.685,2.685,0,0,1,2.461-2.85h3.368ZM46.188,48.506A3.821,3.821,0,0,1,43.4,49.737a3.951,3.951,0,0,1-3.886-3.821,3.821,3.821,0,1,1,7.642,0v0A3.433,3.433,0,0,1,46.188,48.506Zm16.9-12.693c0,1.749-1.684,2.008-2.461,2.008H57.91v-13.6h2.72c1.425,0,2.461,2.008,2.461,3.5Z" transform="translate(-17.756)" fill="#7f1515"/>
    </g>
  </g>
</svg>
