<svg xmlns="http://www.w3.org/2000/svg" xmlns:xlink="http://www.w3.org/1999/xlink" width="45.396" height="51.583" viewBox="0 0 45.396 51.583">
  <defs>
    <linearGradient id="linear-gradient" x1="1" y1="0.046" x2="0.095" y2="0.94" gradientUnits="objectBoundingBox">
      <stop offset="0" stop-color="#23e1ff"/>
      <stop offset="1" stop-color="#0062ac"/>
    </linearGradient>
  </defs>
  <g id="video" transform="translate(0)">
    <path id="Path_330" data-name="Path 330" d="M44.388,20.822H10.016l33.015-9.564a1.008,1.008,0,0,0,.688-1.248L41.991,4.046A5.64,5.64,0,0,0,36.6,0a5.582,5.582,0,0,0-1.552.221l-31,8.98A5.62,5.62,0,0,0,.222,16.146L1.91,21.973v24a5.613,5.613,0,0,0,5.606,5.607H19.623a1.007,1.007,0,1,0,0-2.015H7.517a3.6,3.6,0,0,1-3.592-3.592V32.266H43.381v13.71a3.6,3.6,0,0,1-3.592,3.592H27.683a1.007,1.007,0,1,0,0,2.015H39.789A5.613,5.613,0,0,0,45.4,45.976V21.83a1.007,1.007,0,0,0-1.007-1.007ZM26.623,30.251,30.9,22.837h5.567l-4.28,7.414Zm-7.895,0,4.281-7.414h5.567L24.3,30.251Zm-7.894,0,4.28-7.414h5.568L16.4,30.251ZM14.58,17.208,7.412,10.324l5.371-1.556a1,1,0,0,0,.132.155l7.168,6.885-5.371,1.556A1,1,0,0,0,14.58,17.208ZM28.08,4.53l7.168,6.885-5.371,1.556a.981.981,0,0,0-.132-.155L22.578,5.93l5.371-1.556A1,1,0,0,0,28.08,4.53ZM20.5,6.727l7.168,6.884-5.371,1.556a.981.981,0,0,0-.132-.155L14.995,8.127l5.371-1.556A1.064,1.064,0,0,0,20.5,6.727ZM35.606,2.156a3.562,3.562,0,0,1,.991-.141,3.615,3.615,0,0,1,3.458,2.592l1.447,5-4.042,1.171a1.024,1.024,0,0,0-.133-.155L30.16,3.734Zm-33.14,10.7a3.565,3.565,0,0,1,2.142-1.72l.592-.172a1.025,1.025,0,0,0,.132.155L12.5,18l-8.9,2.577-1.447-5a3.566,3.566,0,0,1,.309-2.73Zm1.459,9.981h8.863l-4.28,7.414H3.925Zm30.593,7.414,4.28-7.414h4.583v7.414Zm0,0" transform="translate(0 0)" fill-rule="evenodd" fill="url(#linear-gradient)"/>
    <path id="Path_331" data-name="Path 331" d="M206.933,350.509a1.007,1.007,0,0,0-.5-.872l-8.851-5.11a1.007,1.007,0,0,0-1.511.872v10.22a1.007,1.007,0,0,0,1.511.872l8.851-5.11a1.007,1.007,0,0,0,.5-.872Zm-8.851,3.365v-6.73l5.829,3.365Zm0,0" transform="translate(-176 -309.695)" fill-rule="evenodd" fill="url(#linear-gradient)"/>
    <path id="Path_332" data-name="Path 332" d="M225.78,492a1.007,1.007,0,1,0,1.007,1.007A1.009,1.009,0,0,0,225.78,492Zm0,0" transform="translate(-201.815 -442.432)" fill-rule="evenodd" fill="url(#linear-gradient)"/>
  </g>
</svg>
